<svg width="120" height="120" viewBox="0 0 120 120" fill="none" xmlns="http://www.w3.org/2000/svg">
<path opacity="0.3" d="M60 20C37.9 20 20 37.9 20 60C20 69.75 23.5 78.65 29.3 85.6C37.75 79 48.4 75 60 75C71.6 75 82.25 79 90.7 85.6C96.5 78.65 100 69.75 100 60C100 37.9 82.1 20 60 20ZM60 65C50.35 65 42.5 57.15 42.5 47.5C42.5 37.85 50.35 30 60 30C69.65 30 77.5 37.85 77.5 47.5C77.5 57.15 69.65 65 60 65Z" fill="#2C98F0"/>
<path d="M60 10C32.4 10 10 32.4 10 60C10 87.6 32.4 110 60 110C87.6 110 110 87.6 110 60C110 32.4 87.6 10 60 10ZM60 100C51.3 100 43.3 97.2 36.75 92.5C43.3 87.8 51.3 85 60 85C68.7 85 76.7 87.8 83.25 92.5C76.7 97.2 68.7 100 60 100ZM90.7 85.6C82.25 79 71.6 75 60 75C48.4 75 37.75 79 29.3 85.6C23.5 78.65 20 69.75 20 60C20 37.9 37.9 20 60 20C82.1 20 100 37.9 100 60C100 69.75 96.5 78.65 90.7 85.6Z" fill="#2C98F0"/>
<path d="M60 29.65C50.35 29.65 42.5 37.5 42.5 47.15C42.5 56.8 50.35 64.65 60 64.65C69.65 64.65 77.5 56.8 77.5 47.15C77.5 37.5 69.65 29.65 60 29.65ZM60 54.65C55.85 54.65 52.5 51.3 52.5 47.15C52.5 43 55.85 39.65 60 39.65C64.15 39.65 67.5 43 67.5 47.15C67.5 51.3 64.15 54.65 60 54.65Z" fill="#2C98F0"/>
</svg>
